<svg xmlns="http://www.w3.org/2000/svg" width="36" height="36"><g transform="translate(508.151 -1529.438)"><circle cx="-489.741" cy="1547.393" r="10" fill="#4bbfeb"/><path style="isolation:auto;mix-blend-mode:normal" fill="#f05542" d="m-485.316 1539.502-11.943-5.845-1.906 1.906 10.326 7.461zm3.176 3.176-3.522 3.523 7.461 10.326 1.906-1.906z" color="#000" overflow="visible"/><path style="isolation:auto;mix-blend-mode:normal" fill="#e9eded" d="m-494.454 1555.39.437.754.873 1.509.874 1.509-.953.953-.953.953-4.13-5.4-5.4-4.13.954-.953.953-.953 1.509.874 1.508.873.755.437.26.136 16.11-16.108c.88-.88 2.296-.88 3.176 0 .88.88.88 2.296 0 3.176l-16.109 16.108z" color="#000" overflow="visible"/><path fill="none" stroke="#cad1d8" stroke-linecap="round" stroke-linejoin="round" d="m-496.395 1553.757-2.541 2.542"/><path fill="none" stroke="#cad1d8" d="m-497.223 1538.704-1.271 1.27m3.176.635-2.541 2.542m16.518 11.435-1.271 1.27m-.635-3.176-2.542 2.541"/></g><path style="line-height:normal;text-indent:0;text-align:start;text-decoration-line:none;text-decoration-style:solid;text-decoration-color:#000;text-transform:none;block-progression:tb;isolation:auto;mix-blend-mode:normal" fill="#e9eded" d="M7.83 5.781v.006l-.506.506-2.736 2.736 2.539 1.836-.121.121-1.979 1.979 1.555 1.555c-1.257 1.809-2.03 3.938-2.033 6.214.002.662.277 1.277.396 1.924l-1.619-.935-1.496 1.494-1.762 1.76 5.108 3.908c-.167.263-.353.536-.338.83.02.407.2.744.447.992.248.248.586.427.992.447.294.015.567-.17.83-.338l3.907 5.106 1.76-1.762 1.496-1.496-.795-1.375c.696.138 1.358.442 2.072.443h.004c2.275 0 4.405-.776 6.215-2.033l1.265 1.266 2.1-2.1 1.836 2.54 3.242-3.243-3.67-7.498c-.012-1.83-.556-3.59-1.433-5.187l2.41-2.41a3.262 3.262 0 0 0 0-4.592 3.262 3.262 0 0 0-4.59 0l-2.494 2.494c-1.385-.693-2.88-1.121-4.43-1.188l-8.172-4zM8.031 7l7.647 3.742a10 10 0 0 1 4.986 1.414l2.969-2.969a2.24 2.24 0 0 1 3.176-.001c.88.88.88 2.297 0 3.177l-2.897 2.897a10 10 0 0 1 1.637 5.476 10 10 0 0 1-.008.168l3.455 7.06-1.906 1.907-2.936-4.062a10 10 0 0 1-8.605 4.927 10 10 0 0 1-4.053-.865l.65 1.125.874 1.508-.954.953-.953.953-3.822-4.998-.584.584A.5.5 0 1 1 6 29.29l.584-.584-5-3.824.953-.953.953-.951L5 23.85l1.348.779a10 10 0 0 1-.8-3.893 10 10 0 0 1 4.991-8.64l-4.414-3.19L8.031 7Zm-.318 4.693.707.707-1.272 1.272-.707-.707 1.272-1.272zm15.883 15.883.707.707-1.272 1.272-.707-.707 1.272-1.272z" color="#000" font-family="sans-serif" font-weight="400" overflow="visible" transform="translate(2.861 -2.781)"/></svg>