<svg xmlns="http://www.w3.org/2000/svg" viewBox="0 0 47.5 47.5"><defs><clipPath id="a"><path d="M0 38h38V0H0v38Z"/></clipPath></defs><path fill="#a7a9ac" d="M1.25 46.25h35L24.219 25H13.28L1.25 46.25Z"/><path fill="#58595b" d="M4.531 46.25H32.97L22.03 25H15.47L4.53 46.25Z"/><path fill="#808285" d="M7.813 46.25h21.875L19.843 25h-2.188L7.813 46.25Z"/><g clip-path="url(#a)" transform="matrix(1.25 0 0 -1.25 0 47.5)"><path fill="#a7a9ac" d="M25 2a1 1 0 0 0-1-1H6a1 1 0 1 0 0 2h18a1 1 0 0 0 1-1M23 6a1 1 0 0 0-1-1H8a1 1 0 1 0 0 2h14a1 1 0 0 0 1-1M21 10a1 1 0 0 0-1-1H10a1 1 0 1 0 0 2h10a1 1 0 0 0 1-1"/><path fill="#58595b" d="M7.896 13.18C8.88 11.954 10.186 11 11.5 11h7c1.313 0 2.62.955 3.604 2.18l-2.23 3.938C18.685 17.021 17.119 17 15 17c-2.157 0-3.74-.023-4.937.008L7.896 13.18Z"/><path fill="#414042" d="M16 34a1 1 0 0 0-2 0v1a1 1 0 0 0 2 0v-1Z"/><path fill="#6d6e71" d="M19 32a2 2 0 0 0-2-2h-4a2 2 0 0 0 0 4h4a2 2 0 0 0 2-2"/><path fill="#d1d3d4" d="M24 19c0-2.209-3.412-5-5.4-5h-7.2C9.412 14 6 16.791 6 19v10c0 2.209 1.612 4 3.6 4h10.8c1.988 0 3.6-1.791 3.6-4V19Z"/><path fill="#808285" d="M22 21a4 4 0 0 0-4-4h-6a4 4 0 0 0-4 4v5c0 2.209 1.791 3 4 3h6c2.209 0 4-.791 4-3v-5Z"/><path fill="#55acee" d="M12 22h6a4 4 0 0 1 4 4v1H8v-1a4 4 0 0 1 4-4"/><path fill="#5c913b" d="M15 17c-6.3 0-7.878 1.801-9 3.242V19c0-2.209 2.7-6 5.4-6h7.2c2.7 0 5.4 3.791 5.4 6v1.891C22.879 19.161 21.3 17 15 17"/><path fill="#ffd983" d="M12 19.5a1.5 1.5 0 1 0-3.001.001A1.5 1.5 0 0 0 12 19.5M21 19.5a1.5 1.5 0 1 0-3.001.001A1.5 1.5 0 0 0 21 19.5"/><path fill="#292f33" d="M22 27v2a2 2 0 0 1-2 2H10a2 2 0 0 1-2-2v-2h14z"/><path fill="#6d6e71" d="M18 29a1 1 0 0 0-1-1h-4a1 1 0 0 0 0 2h4a1 1 0 0 0 1-1"/><path fill="#58595b" d="M24 14.06 33 .999h4v5h-4l-9 10V14.06Z"/><path fill="#a7a9ac" d="M37 6v10H24l9-10h4Z"/><path fill="#6d6e71" d="M34 13c0-1 0-1-1-1s-1 0-1 1v11a1 1 0 1 0 2 0V13Z"/><path fill="#939598" d="M34 20c0-1 0-1-1-1s-1 0-1 1v7a1 1 0 1 0 2 0v-7Z"/><path fill="#58595b" d="M37 26a2 2 0 0 0-2-2h-4a2 2 0 0 0-2 2v2a2 2 0 0 0 2 2h4a2 2 0 0 0 2-2v-2Z"/><path fill="#939598" d="M35 27a1 1 0 0 0-1-1h-2a1 1 0 1 0 0 2h2a1 1 0 0 0 1-1"/></g></svg>