<svg xmlns="http://www.w3.org/2000/svg" xmlns:xlink="http://www.w3.org/1999/xlink" data-name="Layer 1" viewBox="0 0 64 64"><defs><linearGradient id="a" x1="4" x2="10" y1="40" y2="40" gradientUnits="userSpaceOnUse"><stop offset="0" stop-color="#8ede6d"/><stop offset="1" stop-color="#3fc433"/></linearGradient><linearGradient id="d" y1="28" y2="28" xlink:href="#a"/><linearGradient id="e" y1="16" y2="16" xlink:href="#a"/><linearGradient id="b" x1="54" x2="60" y1="36" y2="36" gradientUnits="userSpaceOnUse"><stop offset="0" stop-color="#3fc433"/><stop offset="1" stop-color="#0e7818"/></linearGradient><linearGradient id="f" x1="54" x2="60" y1="24" y2="24" xlink:href="#b"/><linearGradient id="g" x1="54" x2="60" y1="48" y2="48" xlink:href="#b"/><linearGradient id="h" x1="14" x2="50" y1="32" y2="32" gradientUnits="userSpaceOnUse"><stop offset="0" stop-color="#617093"/><stop offset="1" stop-color="#3d4860"/></linearGradient><linearGradient id="i" x1="32.04" x2="50" y1="42" y2="42" gradientUnits="userSpaceOnUse"><stop offset="0" stop-color="#424e68"/><stop offset="1" stop-color="#25282c"/></linearGradient><linearGradient id="j" x1="22" x2="30" y1="48" y2="48" xlink:href="#a"/><linearGradient id="k" x1="10" x2="18" y1="48" y2="48" xlink:href="#a"/><linearGradient id="l" x1="34" x2="42" y1="16" y2="16" xlink:href="#b"/><linearGradient id="m" x1="46" x2="54" y1="16" y2="16" xlink:href="#b"/><linearGradient id="n" x1="34" x2="42" y1="6" y2="6" xlink:href="#b"/><linearGradient id="o" x1="22" x2="30" y1="58" y2="58" xlink:href="#a"/><linearGradient id="p" y1="6" y2="6" xlink:href="#a"/><linearGradient id="q" x1="54" x2="60" y1="58" y2="58" xlink:href="#b"/><linearGradient id="c" x1="21" x2="43" y1="32" y2="32" gradientUnits="userSpaceOnUse"><stop offset="0" stop-color="#fff"/><stop offset="1" stop-color="#b4e7fd"/></linearGradient><linearGradient id="r" x1="41" y1="44" y2="44" xlink:href="#c"/><linearGradient id="s" x1="41" y1="50" y2="50" xlink:href="#c"/><linearGradient id="t" x1="41" y1="56" y2="56" xlink:href="#c"/><linearGradient id="u" x2="23" y1="20" y2="20" xlink:href="#c"/><linearGradient id="v" x2="23" y1="14" y2="14" xlink:href="#c"/><linearGradient id="w" x2="23" y1="8" y2="8" xlink:href="#c"/></defs><path fill="url(#a)" d="M6 36a3.955 3.955 0 0 0-2 .555v6.89A3.955 3.955 0 0 0 6 44a4 4 0 0 0 0-8Z"/><path fill="url(#d)" d="M6 24a3.955 3.955 0 0 0-2 .555v6.89A3.955 3.955 0 0 0 6 32a4 4 0 0 0 0-8Z"/><path fill="url(#e)" d="M6 12a3.955 3.955 0 0 0-2 .555v6.89A3.955 3.955 0 0 0 6 20a4 4 0 0 0 0-8Z"/><path fill="url(#b)" d="M58 32a3.955 3.955 0 0 1 2 .555v6.89A3.955 3.955 0 0 1 58 40a4 4 0 0 1 0-8Z"/><path fill="url(#f)" d="M58 20a3.955 3.955 0 0 1 2 .555v6.89A3.955 3.955 0 0 1 58 28a4 4 0 0 1 0-8Z"/><path fill="url(#g)" d="M58 44a3.955 3.955 0 0 1 2 .555v6.89A3.955 3.955 0 0 1 58 52a4 4 0 0 1 0-8Z"/><path fill="url(#h)" d="M30 22V4H14v32a4 4 0 0 0 4 4h14a2 2 0 0 1 2 2v18h16V28a4 4 0 0 0-4-4H32a2 2 0 0 1-2-2Z"/><path fill="url(#i)" d="M50 28v32H34V42a2 2 0 0 0-1.96-2l.02-16H46a4 4 0 0 1 4 4Z"/><circle cx="26" cy="48" r="4" fill="url(#j)"/><circle cx="14" cy="48" r="4" fill="url(#k)"/><circle cx="38" cy="16" r="4" fill="url(#l)"/><circle cx="50" cy="16" r="4" fill="url(#m)"/><path fill="url(#n)" d="M38 8a4 4 0 0 0 4-4h-8a4 4 0 0 0 4 4Z"/><path fill="url(#o)" d="M26 56a4 4 0 0 0-4 4h8a4 4 0 0 0-4-4Z"/><path fill="url(#p)" d="M4 7.445A3.955 3.955 0 0 0 6 8a4 4 0 0 0 4-4H4Z"/><path fill="url(#q)" d="M60 56.555A3.955 3.955 0 0 0 58 56a4 4 0 0 0-4 4h6Z"/><path fill="url(#c)" d="M43 40h-2v-5a2 2 0 0 0-2-2H25a4 4 0 0 1-4-4v-5h2v5a2 2 0 0 0 2 2h14a4 4 0 0 1 4 4Z"/><path fill="url(#r)" d="M41 42h2v4h-2z"/><path fill="url(#s)" d="M41 48h2v4h-2z"/><path fill="url(#t)" d="M41 54h2v4h-2z"/><path fill="url(#u)" d="M21 18h2v4h-2z"/><path fill="url(#v)" d="M21 12h2v4h-2z"/><path fill="url(#w)" d="M21 6h2v4h-2z"/></svg>